<?xml version="1.0" encoding="UTF-8" ?>
<svg xmlns:svg="http://www.w3.org/2000/svg"
     xmlns="http://www.w3.org/2000/svg"
     xmlns:xlink="http://www.w3.org/1999/xlink"
     height="512" width="512">
  <g transform="translate(256 90)" style="fill:#f88; opacity:0.8">
  <g transform="scale(0.13)">
  <path id="left" d="m 256,-512 c -611.3061,15.6825 -759.9218,542.2101 -759.9218,542.2101 0,0 434.3765,442.7572 -76.6948,614.8947 -159.0947,131.077 120.922,311.7613 246.382,396.4468 125.46,84.6856 249.7966,303.6365 249.7966,303.6365 0,0 18.3442,14.1252 53.1981,32.5778 11.5632,77.0375 52.0322,248.3019 189.8674,364.3 l 81.3172,-12.4882 1.7054,-271.3881 c 4.7379,0.4946 9.5197,0.9544 14.3499,1.3744 l 59.7581,-1221.7082 z m -266.5085,1367.8174 c 54.1986,38.8364 240.8314,291.5528 152.4888,295.7965 -98.8429,4.7481 45.3017,-78.5896 -152.4888,-295.7965 z" transform="translate(-255 600)"/>
  <use xlink:href="#left" transform="scale(-1, 1)"/>
  </g>
  </g>
</svg>

