<?xml version="1.0" encoding="UTF-8" standalone="no"?>
<!-- Created with Inkscape (http://www.inkscape.org/) -->

<svg
   xmlns:dc="http://purl.org/dc/elements/1.1/"
   xmlns:cc="http://creativecommons.org/ns#"
   xmlns:rdf="http://www.w3.org/1999/02/22-rdf-syntax-ns#"
   xmlns:svg="http://www.w3.org/2000/svg"
   xmlns="http://www.w3.org/2000/svg"
   xmlns:sodipodi="http://sodipodi.sourceforge.net/DTD/sodipodi-0.dtd"
   xmlns:inkscape="http://www.inkscape.org/namespaces/inkscape"
   width="128"
   height="128"
   viewBox="0 0 33.866666 33.866668"
   version="1.1"
   id="svg5246"
   inkscape:version="0.92.4 (unknown)"
   sodipodi:docname="ambiv_bkp.svg">
  <defs
     id="defs5240" />
  <sodipodi:namedview
     id="base"
     pagecolor="#ffffff"
     bordercolor="#666666"
     borderopacity="1.0"
     inkscape:pageopacity="0.0"
     inkscape:pageshadow="2"
     inkscape:zoom="2.8284271"
     inkscape:cx="64.587475"
     inkscape:cy="83.255438"
     inkscape:document-units="mm"
     inkscape:current-layer="layer2"
     showgrid="false"
     units="px"
     inkscape:window-width="1918"
     inkscape:window-height="1058"
     inkscape:window-x="0"
     inkscape:window-y="20"
     inkscape:window-maximized="1" />
  <metadata
     id="metadata5243">
    <rdf:RDF>
      <cc:Work
         rdf:about="">
        <dc:format>image/svg+xml</dc:format>
        <dc:type
           rdf:resource="http://purl.org/dc/dcmitype/StillImage" />
        <dc:title></dc:title>
      </cc:Work>
    </rdf:RDF>
  </metadata>
  <g
     inkscape:groupmode="layer"
     id="layer2"
     inkscape:label="Layer 2">
    <path
       sodipodi:nodetypes="sssssssssscsscssssscccssssscsccsscssscsscssccscssssccssssscsscssscccsccsccscssssccssssssssssssccscsscscssssccsssssss"
       transform="matrix(0.05364174,0,0,-0.05364174,-6.5618142,40.423747)"
       inkscape:connector-curvature="0"
       id="path4564"
       d="M 410.5,711.87767 C 307.1909,702.0973 217.50675,631.75419 181.80189,532.5 165.04201,485.91002 161.50731,431.71933 172.01782,382.5 187.3917,310.50616 231.28503,246.99578 293.92038,206.11606 336.22078,178.50818 388.28107,163.04151 439,163.01412 c 131.58735,-0.071 244.41041,95.1291 266.90217,225.21214 5.96085,34.47511 5.28497,71.53385 -1.91999,105.27374 -15.37388,71.99384 -59.26721,135.50422 -121.90256,176.38394 -34.57999,22.56906 -75.97167,37.19303 -117.85118,41.63766 -14.78097,1.56869 -39.20955,1.73058 -53.72844,0.35607 z m 47.87568,-13.89352 c 16.11407,-3.97723 36.29385,-4.97226 70.69564,-32.96458 22.37027,-18.20242 13.40094,-30.24369 55.32426,-77.61116 8.68701,-9.81511 15.98715,-21.36453 23.09248,-32.64521 20.3469,-33.44019 32.97784,-53.00714 32.68617,-111.92141 C 640.10863,429.59196 636.0366,417 634.56754,417 c -1.81963,0 -15.20674,6.66936 -24.99398,12.45182 -11.16541,6.5967 -26.98029,18.22311 -35.34379,25.98321 C 568.66225,460.60087 557,475.57508 557,477.55787 c 0,0.41434 1.14804,2.2585 2.55119,4.09813 8.12719,10.6553 4.69446,22.40359 -4.96518,33.40531 -20.17205,20.75117 -17.18237,13.32741 -2.67622,-4.81857 8.60815,-11.45637 8.75878,-19.02688 0.53593,-26.93424 -5.27778,-5.07529 -16.51556,-10.6477 -25.97335,-12.87927 -13.74373,-3.24283 -40.53847,-0.23156 -60.44279,6.79272 -22.12855,7.80922 -37.20849,19.22844 -47.68911,31.02805 -17.08336,19.23331 -8.8581,8.79873 -6.33673,2.5 2.5283,-6.31603 18.08334,-24.22019 34.54846,-33.29609 30.87993,-19.8297 -37.01982,-64.18196 -8.90628,-84.55238 8.87888,-6.43343 24.1207,-22.30883 26.69353,-27.08627 7.75114,-14.69336 3.76182,-9.22683 -6.37759,1.88738 -8.53248,11.88126 -21.7692,21.04327 -42.99958,29.76283 -16.34403,6.71269 -46.88472,11.5438 -59.86617,9.47001 -21.6408,-3.45714 -38.16594,-15.02537 -38.07415,-26.65336 0.0289,-3.65587 0.79394,-10.36018 3.22471,-16.10227 7.12943,-16.84149 6.62458,-19.73629 -3.21946,-2.10065 -7.07348,12.67217 -8.01871,21.53845 -0.47363,31.42305 l 3.47257,4.54932 -4.89952,7.22421 c -11.39704,16.80463 -37.19826,36.93823 -63.95164,49.90371 -5.67876,2.7521 -10.51449,4.81434 -10.74607,4.58277 -1.4561,-1.45611 -4.58752,-21.3307 -5.08321,-32.26226 -1.44768,-31.92614 8.50928,-69.30119 29.74829,-111.66497 4.85766,-9.68919 13.23048,-22.05119 21.90062,-32.33503 31.32353,-26.93927 57.72332,-74.78897 97.00538,-93.06739 19.93783,-9.17703 27.96286,-12.01604 41.92422,-14.8315 13.85097,-2.79319 12.27176,-3.5682 -7.31003,-3.58746 -11.65434,-0.0115 -16.31468,0.48511 -29,3.09002 -39.43852,8.09861 -69.51887,20.28564 -99.61419,40.35861 -55.21409,36.82667 -94.53858,94.95772 -109.3792,161.6887 -4.84006,21.76339 -6.03015,33.54339 -5.99583,59.34902 0.0353,26.55802 1.69981,41.16165 7.29456,64 31.22625,117.47959 120.82658,208.25098 276.45615,197.48415 z m -53.76302,-76.76228 c -17.15252,-2.3543 -10.83027,-8.65115 -8.12469,-15.08796 5.56466,-13.23879 17.46613,-26.51883 28.78631,-32.12067 5.41502,-2.67964 8.06293,-3.28162 15.79178,-3.59013 26.9516,-1.0758 51.16114,15.1073 46.02305,31.48291 l -1.16515,3.71343 c 0,0 -4.40598,7.79868 -15.65682,11.18655 -18.99747,5.72052 -43.93115,7.39753 -65.65448,4.41587 z M 266.14621,557.00271 c -5.76348,-1.36202 -10.86412,-4.1071 -12.1719,-6.55071 -1.08209,-2.0219 -0.82674,-3.57256 1.83614,-11.15025 5.89065,-16.76291 6.35627,-25.79978 2.14492,-41.62902 -1.04956,-3.945 -1.91889,-7.51023 -1.93183,-7.92273 -0.013,-0.4125 1.88896,-0.75181 4.22646,-0.75402 5.87706,-0.006 20.84644,-2.55291 29.24682,-4.97695 3.84825,-1.11047 7.40112,-2.01903 7.89526,-2.01903 0.52756,0 0.56248,6.29526 0.0846,15.25 -1.23828,23.20216 -1.88231,34.69504 0.53903,41.82413 3.85067,11.33747 3.14446,11.21766 -4.27335,14.80856 -7.62957,3.69341 -19.49372,5.03478 -27.59612,3.12002 z M 234.3334,482.56467 c -8.65606,-1.97225 -22.20815,-3.13541 -21.83182,-6.33092 0.34071,-2.89311 12.60029,-3.22833 39.34214,-16.23215 15.29923,-7.4396 29.67494,-16.37 42.65628,-26.4987 8.9349,-6.97147 22.87091,-21.08405 27.03725,-27.37982 1.50069,-2.2677 3.06204,-4.12308 3.46968,-4.12308 0.40764,0 2.71034,1.09509 5.11712,2.43352 5.99041,3.33135 20.66681,7.41218 30.29378,7.4804 6.65437,0.80724 6.6306,0.6281 1.45472,10.96327 -4.83142,9.64737 -14.26559,16.44003 -21.54671,24.18857 -17.24376,18.35076 -36.21128,28.85607 -62.32584,34.51966 -10.37216,2.24946 -35.60792,2.81539 -43.6666,0.97925 z M 559.42628,463.22298 C 574.34781,445.15929 596.67975,429.05033 628,413.75791 c 21.63983,-10.56585 40.53002,-12.02172 40.53002,-14.80432 0,-4.14063 -34.22951,-7.55939 -50.36482,-6.53539 -25.05341,1.58998 -47.72473,8.95608 -64.57699,20.9816 -8.04258,5.73907 -21.64891,19.32556 -26.47117,26.43258 -4.56131,6.72242 -14.97049,19.15482 -14.97049,21.31236 0,1.04711 0.99706,1.52496 3.1819,1.52496 5.01923,0 21.78401,4.1649 28.77958,7.73323 3.51558,1.79325 6.67614,2.99869 7.02347,2.67876 0.34732,-0.31993 4.07997,-4.75635 8.29478,-9.85871 z M 586,391.70153 C 594.60456,389.24549 607.71197,387 613.4438,387 c 2.87258,0 5.43812,-0.21526 5.70121,-0.47835 0.26309,-0.26309 -0.59572,-4.65059 -1.90846,-9.75 C 614.07343,364.4844 614.47487,352.02 618.38864,341 c 4.48142,-12.61831 4.48314,-12.62625 3.25943,-15.04776 -2.13975,-4.23417 -8.19329,-6.41855 -18.82741,-6.79374 -11.15908,-0.39371 -18.92844,1.37842 -23.72015,5.41038 -4.46547,3.75744 -3.93818,1.27149 -0.69715,12.87034 2.44188,8.7389 1.78198,15.92142 1.20372,23.9949 -1.81991,25.40919 -1.93597,32.90582 -0.50103,32.36381 0.76667,-0.28958 3.86895,-1.23297 6.89395,-2.0964 z M 445.64774,301.92284 c 11.8218,-4.36166 23.65899,-16.27139 30.179,-30.36392 3.25308,-7.0313 -35.68149,-17.39874 -52.97581,-14.25303 -20.92244,3.80564 -30.96439,14.4254 -31.10291,14.69411 -0.19864,0.38534 -0.47203,2.08941 -0.57892,4.92859 -0.23267,6.17945 3.59627,12.40019 8.78761,16.4769 11.71253,9.19772 33.06078,13.17728 45.69103,8.51735 z"
       style="fill:#000000;fill-opacity:1" />
    <circle
       transform="matrix(0.38384773,0,0,0.38384773,77.389351,-18.284696)"
       r="37.726883"
       cy="91.75"
       cx="-157.5"
       id="path4566"
       style="color:#000000;overflow:visible;opacity:1;vector-effect:none;fill:none;fill-opacity:1;fill-rule:nonzero;stroke:#000000;stroke-width:2.60519972;stroke-linecap:round;stroke-linejoin:miter;stroke-miterlimit:4;stroke-dasharray:none;stroke-dashoffset:0;stroke-opacity:1" />
  </g>
</svg>
