<?xml version="1.0" encoding="UTF-8" standalone="no"?>
<!-- Created with Inkscape (http://www.inkscape.org/) -->

<svg
   xmlns:dc="http://purl.org/dc/elements/1.1/"
   xmlns:cc="http://creativecommons.org/ns#"
   xmlns:rdf="http://www.w3.org/1999/02/22-rdf-syntax-ns#"
   xmlns:svg="http://www.w3.org/2000/svg"
   xmlns="http://www.w3.org/2000/svg"
   xmlns:sodipodi="http://sodipodi.sourceforge.net/DTD/sodipodi-0.dtd"
   xmlns:inkscape="http://www.inkscape.org/namespaces/inkscape"
   width="128"
   height="128"
   viewBox="0 0 33.866666 33.866668"
   version="1.1"
   id="svg5246"
   inkscape:version="0.92.4 (unknown)"
   sodipodi:docname="ambiv.svg">
  <defs
     id="defs5240" />
  <sodipodi:namedview
     id="base"
     pagecolor="#ffffff"
     bordercolor="#666666"
     borderopacity="1.0"
     inkscape:pageopacity="0.0"
     inkscape:pageshadow="2"
     inkscape:zoom="3.959798"
     inkscape:cx="49.975703"
     inkscape:cy="96.970891"
     inkscape:document-units="mm"
     inkscape:current-layer="layer1"
     showgrid="false"
     units="px"
     inkscape:window-width="1918"
     inkscape:window-height="1058"
     inkscape:window-x="0"
     inkscape:window-y="20"
     inkscape:window-maximized="1" />
  <metadata
     id="metadata5243">
    <rdf:RDF>
      <cc:Work
         rdf:about="">
        <dc:format>image/svg+xml</dc:format>
        <dc:type
           rdf:resource="http://purl.org/dc/dcmitype/StillImage" />
        <dc:title></dc:title>
      </cc:Work>
    </rdf:RDF>
  </metadata>
  <g
     inkscape:label="Layer 1"
     inkscape:groupmode="layer"
     id="layer1"
     transform="translate(0,-263.13332)">
    <path
       style="fill:#e6e6e6;fill-rule:evenodd;stroke:none;stroke-width:11.33858299;stroke-linecap:butt;stroke-linejoin:miter;stroke-opacity:1"
       d="m 72.267578,-331.89648 c -30.430976,-1.62714 -60.648004,17.72968 -67.790705,48.05976 -14.955431,41.06726 -6.1626786,92.59975 31.400838,118.64178 24.953954,10.64476 1.582347,51.90381 -19.001462,29.60315 -13.9586742,-20.83848 -46.514466,-29.59069 -54.805277,1.50727 -14.514394,31.46898 -20.841081,65.888529 -27.481128,99.67827 l -47.134764,-45.457031 c -10.2852,25.65339 -26.73525,-10.634608 -45.36886,0.834337 -18.24534,12.187737 -41.29834,-23.911956 -49.69856,-3.576455 -9.68733,31.970677 23.63359,50.600334 51.13802,49.682057 26.16129,1.706027 38.72358,35.3934406 62.140533,47.422329 17.225465,19.097146 51.010379,24.865403 59.378615,-5.4951868 C -22.062782,-13.620411 -19.114348,-41.792824 -5.5957031,-63.195312 2.1954585,3.60867 1.2115112,68.284463 1.4765625,130.75391 H 143.05664 c 1.16846,-63.744035 -0.57567,-127.8108939 6.05074,-191.271677 13.53978,7.888313 16.65472,47.202806 28.62083,65.6744316 6.66847,28.8900844 38.76704,32.9872944 57.52008,12.3890754 23.9683,-12.2547109 38.21397,-44.123721 63.1548,-49.444618 26.85774,0.666389 62.50633,-13.797286 55.64013,-46.694709 -4.01675,-28.399943 -28.18525,9.353829 -45.7657,0.506285 -19.97239,-15.65572 -39.31729,24.154918 -50.34429,-0.956352 -6.33337,2.685314 -13.07325,12.108849 -19.56284,17.383425 -9.4301,9.08466 -18.86021,18.169319 -28.29031,27.253979 -8.45644,-38.640781 -13.39721,-80.36737 -36.33439,-113.63326 -22.12663,-25.11551 -39.86138,17.42441 -61.40907,18.54269 -30.457374,-9.91445 -4.59549,-41.14225 12.2932,-50.6672 30.61952,-35.01047 27.95945,-90.2633 3.45218,-127.73442 -12.82267,-17.39986 -35.08691,-23.80188 -55.814422,-23.99804 z m 230.398442,50.00749 c -23.14732,1.41244 -51.1945,38.31357 -28.34397,37.33594 22.85053,-0.97763 43.88017,-14.63985 35.58811,11.61328 -10.90648,17.52778 -32.21268,55.17452 -7.78163,66.65197 17.67454,5.13312 3.80934,-20.89748 17.77186,-28.06408 15.52041,-17.65818 34.68579,-41.86069 21.30617,-66.27012 -7.05959,-14.12595 -15.39322,-22.67943 -38.54054,-21.26699 z m -458.59571,6.65266 c -23.51699,0.82014 -51.19607,38.31888 -28.34396,37.33789 22.85211,-0.98099 43.88108,-14.63851 35.5881,11.61328 -10.90991,17.52594 -32.21318,55.17386 -7.78163,66.65001 17.67424,5.13332 2.77622,-15.43907 17.76991,-28.06407 14.99369,-12.625 34.68751,-41.8603 21.30812,-66.26981 -7.06167,-14.12415 -15.02355,-22.08744 -38.54054,-21.2673 z m 459.47071,121.21844 c -33.8088,-0.39759 -17.06871,54.735825 10.864,35.71459 15.6818,-9.85395 7.9283,-36.5237 -10.864,-35.71459 z m -458.59571,6.65266 c -33.80879,-0.39758 -17.0687,54.735821 10.86401,35.71459 15.6818,-9.85395 7.92829,-36.52371 -10.86401,-35.71459 z"
       id="path4533"
       inkscape:connector-curvature="0"
       transform="matrix(0.05361242,0,0,0.05361242,13.030944,285.4586)"
       sodipodi:nodetypes="ccccccccccccccccccccccccccccczzcccczzzcczczcccccc" />
  </g>
</svg>
