<?xml version="1.0" encoding="UTF-8" ?>
<svg xmlns:svg="http://www.w3.org/2000/svg"
     xmlns="http://www.w3.org/2000/svg"
     xmlns:xlink="http://www.w3.org/1999/xlink"
     height="512" width="512">
  <style type="text/css">
    .black{ fill: #8a5050; }
    .white{ fill: #c28359; }
  </style>
  <defs>
    <rect class="black" id="bs" width="64" height="64" />
      <rect id="t_outer" rx="5" ry="5" width="64" height="64" transform="rotate(45 32 32)"/>
      <rect id="t_inner" rx="5" ry="5" width="48" height="48" x="8" y="8"/>
      <circle id="dot" r="6" cx="32" cy="32" />
      <g id="btrap">
	<use class="white" xlink:href="#t_outer"/>
	<use class="black" xlink:href="#t_inner"/>
	<use class="black" xlink:href="#t_inner" transform="rotate(45 32 32)"/>
	<use xlink:href="#dot" class="white"/>
      </g>
      <g id="wtrap">
	<use class="black" xlink:href="#t_outer"/>
	<use class="white" xlink:href="#t_inner"/>
	<use class="white" xlink:href="#t_inner" transform="rotate(45 32 32)"/>
	<use xlink:href="#dot" class="black"/>
      </g>
  </defs>
  <rect class="white" width="512" height="512"/>
  <use xlink:href="#bs" x="64" y="0"/>
  <use xlink:href="#bs" x="192" y="0"/>
  <use xlink:href="#bs" x="320" y="0"/>
  <use xlink:href="#bs" x="448" y="0"/>
  <use xlink:href="#bs" x="0" y="64"/>
  <use xlink:href="#bs" x="128" y="64"/>
  <use xlink:href="#bs" x="256" y="64"/>
  <use xlink:href="#bs" x="384" y="64"/>
  <use xlink:href="#bs" x="64" y="128"/>
  <use xlink:href="#bs" x="192" y="128"/>
  <use xlink:href="#bs" x="320" y="128"/>
  <use xlink:href="#bs" x="448" y="128"/>
  <use xlink:href="#bs" x="0" y="192"/>
  <use xlink:href="#bs" x="128" y="192"/>
  <use xlink:href="#bs" x="256" y="192"/>
  <use xlink:href="#bs" x="384" y="192"/>
  <use xlink:href="#bs" x="64" y="256"/>
  <use xlink:href="#bs" x="192" y="256"/>
  <use xlink:href="#bs" x="320" y="256"/>
  <use xlink:href="#bs" x="448" y="256"/>
  <use xlink:href="#bs" x="0" y="320"/>
  <use xlink:href="#bs" x="128" y="320"/>
  <use xlink:href="#bs" x="256" y="320"/>
  <use xlink:href="#bs" x="384" y="320"/>
  <use xlink:href="#bs" x="64" y="384"/>
  <use xlink:href="#bs" x="192" y="384"/>
  <use xlink:href="#bs" x="320" y="384"/>
  <use xlink:href="#bs" x="448" y="384"/>
  <use xlink:href="#bs" x="0" y="448"/>
  <use xlink:href="#bs" x="128" y="448"/>
  <use xlink:href="#bs" x="256" y="448"/>
  <use xlink:href="#bs" x="384" y="448"/>
  <use xlink:href="#btrap" x="128" y="128"/>
  <use xlink:href="#btrap" x="320" y="320"/>
  <use xlink:href="#wtrap" x="320" y="128"/>
  <use xlink:href="#wtrap" x="128" y="320"/>
</svg>

