<?xml version="1.0" encoding="UTF-8" standalone="no"?><svg xmlns:svg="http://www.w3.org/2000/svg" xmlns="http://www.w3.org/2000/svg" xmlns:xlink="http://www.w3.org/1999/xlink" width="203.2mm" height="67.73mm" viewBox="0 0 203.2 67.73" version="1.1" ><g transform="translate(-3.0361853,-4.5852354)" style="display:none"><g id="g4605" transform="translate(551.84524,1.5119048)"><path id="path6039" transform="matrix(0.26458333,0,0,0.26458333,1608.5863,-1413.5699)" d="m -5660.2637,4411.4297 c 4.5425,145.104 39.5541,189.8099 48.5313,204.1621 15.8644,14.3629 35.8349,18.7719 36.75,33.3516 0.6314,10.0605 -26.0674,16.5686 -26.2774,17.8984 l -8.4961,32.0566 c -4.1863,11.3193 27.4568,45.8912 48.8223,70.6602 9.1727,10.634 33.2657,18.1348 40.9238,18.1348 l 12.709,-139.4024 -12.709,-94.875 c -27.6729,-0.2064 -34.6948,5.7199 -42.5664,12.9492 -11.483,10.546 -26.8807,11.8619 -28.5664,-1.5097 -12.4156,-111.9931 14.3173,-88.6967 -69.1211,-153.4258 z m 114.8985,326.2344 c 3.488,0.075 7.8774,2.1372 11.2031,7.0918 11.314,12.8242 6.9687,31.4921 6.9687,31.4921 -0.2963,3.7906 -5.0291,6.026 -5.1855,1.8965 -0.6036,-14.0258 -2.4258,-18.5575 -9.4473,-25.455 -13.5727,-8.0645 -10.1981,-15.168 -3.539,-15.0254 z" 	/><use transform="matrix(-1,0,0,1,296.16745,0)" xlink:href="#path6039"/></g><path transform="matrix(0.26458333,0,0,0.26458333,2183.9133,-1413.5699)" d="m -5675.8359,5052.8047 c 12.2483,-3.5512 6.3874,14.6562 -1.4668,44.3828 -2.7494,7.5568 31.2827,35.9668 42.2968,41.9414 10.594,5.7468 56.7297,23.5105 77.0118,28.8164 7.0967,2.9303 30.2832,-13.0234 30.2832,-13.0234 l -0.074,-36.7071 c -16.2768,-8.508 -31.7295,-17.75 -29.7851,-29.5468 1.7867,-10.8407 9.623,-10.1336 36.1396,-11.1055 l 21.2072,-75.8906 -21.2072,-75.8907 c -47.1422,-0.6866 -49.4998,3.8849 -60.8427,12.2833 -11.3428,8.3984 -17.9078,12.8407 -30.1055,5.9257 -64.1667,-56.2714 -82.4398,-77.4322 -89.9674,-73.8886 -7.5276,3.5435 7.5963,47.6809 26.5101,182.7031 z m 29.5646,-43.9043 c 11.5588,0.3993 47.2667,11.559 62.4861,22.5859 7.9469,5.7579 12.8505,17.6285 12.4707,28.5547 -11.4011,12.8687 -55.9312,-10.184 -71.2675,-34.8222 -2.5049,-5.7979 -13.4847,-16.6064 -3.6893,-16.3184 z" id="path6046"/><g id="g4601" transform="matrix(0.2666849,0,0,0.2666849,13.370911,-9.6083802)"><path d="m -5660.2637,4411.4297 c 4.906,144.4981 55.6033,153.3016 48.5313,204.1621 15.8644,14.3629 35.8349,18.7719 36.75,33.3516 0.6314,10.0605 -26.0674,16.5686 -26.2774,17.8984 l -8.4961,32.0566 c -4.1863,11.3193 27.4568,45.8912 48.8223,70.6602 9.1727,10.634 30.4516,18.1348 40.8301,18.1348 l 12.8027,-139.4024 -12.6152,-94.875 c -27.6729,-0.2064 -34.7886,5.7199 -42.6602,12.9492 -11.483,10.546 -26.8807,11.8619 -28.5664,-1.5097 -12.4156,-111.9931 14.3173,-88.6967 -69.1211,-153.4258 z m 114.8985,326.2344 c 3.488,0.075 7.8774,2.1372 11.2031,7.0918 11.314,12.8242 6.9687,31.4921 6.9687,31.4921 -0.2963,3.7906 -5.0291,6.026 -5.1855,1.8965 -0.6036,-14.0258 -2.4258,-18.5575 -9.4473,-25.455 -13.5727,-8.0645 -10.1981,-15.168 -3.539,-15.0254 z" transform="matrix(0.26458333,0,0,0.26458333,1484.8602,-1413.5699)" id="path6048"/><use xlink:href="#path6048" transform="matrix(-1,0,0,1,48.665676,0)"/></g><path transform="matrix(-0.26458333,0,0,0.26458333,-737.71428,-1413.5699)" id="path6098" d="m -5553.1881,5182.2223 c 0,0 -0.9524,6.8999 32.002,6.588 32.9544,0.3119 32.002,-6.588 32.002,-6.588 -18.7173,-3.7297 -32.002,-20.7714 -32.002,-20.7714 0,0 -13.2847,17.0417 -32.002,20.7714 z"/><path id="path6130" transform="matrix(-0.26458333,0,0,0.26458333,-737.99768,-1413.5699)" d="m -5545.3384,5094.1488 c -3.1038,-2.2023 -1.4795,-5.8744 3.4875,-5.8744 h 20.1294 20.1295 c 4.967,0 6.5913,3.6721 3.4875,5.8744 -16.3473,11.0544 -18.9467,14.4741 -23.617,14.2411 -4.6702,0.233 -7.2696,-3.1867 -23.6169,-14.2411 z"/><g transform="translate(1603.2605,-2816.2004)" id="g6159"><use transform="translate(-18757.362,4657.8088)" id="use6149" xlink:href="#path6046"/><use xlink:href="#path6046" id="use6155" transform="matrix(-1,0,0,1,15455.591,4657.8088)"/></g><path transform="matrix(0.26458333,0,0,0.26458333,2183.9133,-1413.5699)" d="m -5693.668,5244.2969 c -7.24,0.31 -15.2759,8.8861 -14.0937,12.2969 4.4499,13.3165 19.3464,59.0838 27.0664,116.4531 0.2862,8.3432 -17.3478,53.7248 -17.9942,64.4043 -0.3994,6.5992 14.2579,26.5273 14.2579,26.5273 24.6733,-34.8927 11.2841,6.9777 1.582,28.2598 -5.5301,7.6177 42.5266,50.5325 67.6133,75.6191 5.8831,5.8831 38.385,-72.4793 46.2324,-67.1699 7.1016,4.8048 -27.3741,57.7045 -27.3281,66.3359 0.037,7.0652 16.2578,34.9453 16.2578,34.9454 0,0 0.01,5.6824 58.8047,4.3769 l 13.2031,-32.9121 -13.2031,-23.9941 c 0,0 -11.2047,-0.3956 -15.4317,-18.586 -3.9509,-12.528 -30.2749,-5.616 -18.123,-36.8691 1.5701,-3.2206 11.3513,-7.4119 33.5547,-7.1602 l 19.1406,-87.1406 -19.1406,-87.1387 c -38.7826,0 -52.2781,15.0367 -66.42,5.5567 -52.6471,-35.2916 -87.5107,-63.5115 -101.2167,-72.5332 -1.4631,-0.974 -3.091,-1.3431 -4.7618,-1.2715 z m 44.7852,171.6855 c 18.7421,-0.3311 49.625,8.9865 62.0508,14.4512 3.688,1.6877 19.7198,37.4519 9.9726,45.084 -10.8041,8.4597 -25.6238,-8.2943 -45.748,-23.0078 -19.9958,-14.6196 -41.8109,-27.7518 -36.9356,-34.5899 2.6559,-1.2699 6.3351,-1.8611 10.6602,-1.9375 z m 73.9433,200.2637 6.3965,26.666 8.5059,-25.2715 z m 53.67,1.8184 -26.1993,0.1699 c -8.4031,0 -8.3686,17.8633 0,17.8633 l 26.1993,-0.033 6.1523,-9 z" id="path6161"/><path transform="matrix(0.26458333,0,0,0.26458333,2183.9133,-1413.5699)" id="path6180" d="m -5548.501,6256.4137 c 35.7057,-4.7802 3.428,-67.7126 -13.0787,-58.1358 -12.9431,7.5093 15.7189,17.4758 7.868,35.9509 -6.687,15.7361 -5.5339,23.6234 5.2107,22.1849 z m 27.9753,-410.9986 c 0,0 -41.7746,0.01 -56.539,8.9174 -19.1297,11.5438 -56.4413,55.2485 -58.1028,60.8836 -1.6614,5.6352 3.1728,27.4962 7.6652,30.7037 61.3099,43.7751 89.3294,139.3348 88.0883,223.705 -2.0963,25.9891 -11.5374,22.953 -10.8413,2.4168 1.0688,-37.4398 -7.3307,-119.0039 -43.4079,-170.9475 -12.656,7.3944 -26.9286,9.1819 -41.9202,8.4761 -39.0637,94.0791 86.8842,47.963 49.5274,211.0785 -4.8231,17.2011 12.9771,28.9095 20.185,37.0665 5.2387,5.9286 20.4492,5.2001 45.3453,5.2001 l 13.8107,-208.7501 z m -111.529,-94.1803 c -23.3864,56.7793 20.7807,53.2767 17.4682,117.7476 0,0 16.1825,-21.5293 34.1699,-27.3942 -6.5205,-36.6642 -18.2699,-69.1867 -51.6381,-90.3534 z"/><path transform="matrix(0.26458333,0,0,0.26458333,2183.9133,-1413.5699)" id="path6192" d="m -5521.0568,6729.7182 c -13.2156,15.682 -48.5915,20.6015 -64.4868,25.7231 27.8064,13.6756 37.0754,16.9178 64.5413,16.9178 l 3.4884,-19.8557 z m 0.4418,-199.8765 c 0,0 -72.0953,4.1166 -74.0128,20.4466 -1.9175,16.33 30.9175,36.8514 34.5083,38.2325 3.5908,1.3811 18.2845,10.2792 -0.4319,9.4539 -18.7165,-0.8254 -25.3789,-9.7363 -25.3789,-9.7363 2.5168,8.448 -5.3992,23.3675 -13.0943,43.1443 -11.9893,30.8136 -24.2307,72.0388 -1.7121,108.3245 5.9755,8.7053 60.5057,-9.7607 74.6572,-17.5209 -2.157,-14.3799 -2.266,-107.4384 1.4243,-131.4391 -19.7593,-13.3687 -17.5508,-41.5428 -58.7158,-36.9289 -3.379,0.2532 -4.4345,-2.6919 -1.1719,-4.8828 0,0 30.2651,-24.1871 63.9279,33.9268 l 5.4688,-30.2212 z m 0,-119.9008 c -11.928,-9.8255 -55.3075,-4.0977 -76.5203,9.6624 -12.1926,7.9089 -5.4548,21.9069 -14.2497,30.7316 -41.2623,30.6747 -75.9112,25.3872 -77.9822,45.5309 -0.4165,7.8575 14.1182,5.7692 27.3797,15.4388 18.8802,13.7665 38.648,37.6389 35.4288,54.2145 -0.5983,1.7378 -2.0918,12.6383 -23.1276,8.4689 -18.1327,-3.7546 -23.726,-6.6514 -28.5063,0.2051 -4.7803,6.8565 -8.3445,8.5235 -6.5491,12.5286 1.7954,4.0051 27.7332,55.8051 26.0892,105.97 -1.011,25.6312 22.0248,43.8066 43.6297,50.7393 0,0 -35.9136,-54.6093 16.0364,-146.5154 4.8046,-8.9167 -3.9095,-27.7833 -5.2301,-30.1975 -18.0288,-32.9595 21.356,-49.4876 83.6015,-50.0105 l 11.0485,-53.3833 z m -85.2665,-1.6555 c 0,0 -11.03,7.6247 -15.0606,28.4968 -44.3115,-47.1001 -84.2705,-38.9455 -84.6848,-33.6974 -0.2762,11.3248 41.3427,5.7672 75.1644,43.2041 l -38.2043,16.8461 c -13.6674,-30.2268 -57.9991,-51.5867 -58.1788,-67.9798 26.9126,-23.4001 76.827,7.0654 120.9641,13.1302 z"/><g id="g4582" transform="matrix(0.2666849,0,0,0.2666849,137.90231,-144.09081)"><use transform="translate(-669.47022,-2.1987965e-5)" id="use6195" xlink:href="#path6192"/><use transform="matrix(-1,0,0,1,107.56037,2.1987965e-5)" id="use6206" xlink:href="#use6195"/></g><path transform="matrix(0.26458333,0,0,0.26458333,2183.9133,-1413.5699)" id="path6208" d="m -5517.3834,7570.0715 c -13.7675,0 -28.1704,-2.9357 -30.3801,-13.4318 -2.2097,-10.4961 -2.7538,-107.7823 -22.4896,-169.33 -13.953,-45.484 -18.274,-29.3214 -10.7845,8.9048 -14.0662,-11.8984 -29.7488,-19.7558 -45.8826,-26.4851 0,0 35.8251,-92.4644 39.3508,-105.6227 13.3099,-32.4277 -40.9225,-68.9509 -77.5719,-74.592 -3.3458,-0.6123 -2.609,-21.6675 1.0488,-28.6672 0,0 55.1208,-96.125 60.683,-102.6064 5.5622,-6.4814 49.0839,-34.8412 60.559,-34.8412 10.0059,0 12.4388,3.9095 24.8619,3.9095 l 21.3964,271.3811 z m -124.1557,-74.0745 c 18.8952,-38.127 22.718,-73.5925 21.3063,-107.2826 16.0495,7.1788 30.834,15.9389 43.9386,26.7989 -15.8033,30.4771 -33.6221,61.8975 -65.2449,80.4837 z m -13.6565,-230.4717 c 0.1871,14.811 -10.3466,41.7356 -4.7567,53.0173 5.5899,11.2816 25.4611,30.3182 25.4611,30.3182 0,0 33.6565,-88.1324 33.9356,-91.3651 0.2712,-3.141 -1.5192,-5.6624 -1.5192,-5.6624 0,0 -24.2386,5.1234 -54.1006,-15.5265 -1.049,16.0877 19.2571,23.528 25.8209,25.2945 6.9704,1.8759 15.8174,4.4214 12.1572,11.1941 -3.5688,6.9033 -17.0285,4.3373 -36.9983,-7.2701 z m -111.1056,83.2324 c -23.8713,-73.7497 30.6015,-89.1249 41.698,-229.0635 0.7555,-9.5272 8.236,-20.308 17.0277,-24.0568 l 80.5357,-34.3401 c 3.0992,-1.3215 4.3505,0.03 2.7673,3.0041 -38.9226,73.116 -62.387,87.3795 -53.1446,121.8745 -4.5496,-1.0629 -17.2769,-0.1974 12.8186,13.7594 -6.0304,12.5296 -4.4473,21.3006 -1.0511,28.2631 -5.772,11.2145 -4.041,20.9283 1.8839,29.8034 -26.2502,72.5248 -6.0686,73.3986 24.1578,103.7722 -2.513,9.4431 -0.643,17.7904 11.3733,23.6011 l -1.0795,7.9568 c -70.5769,-55.4704 -80.7282,-54.0284 -123.9463,-38.428 -5.307,1.9157 -11.3035,-0.7788 -13.0408,-6.1462 z"/><g id="g4673" transform="translate(279.38813,44.61781)"><use transform="matrix(0.2666849,0,0,0.2666849,-279.33871,-242.16252)" id="use6223" xlink:href="#path6208"/><use xlink:href="#path6208" id="use6225" transform="matrix(-0.2666849,0,0,0.2666849,106.79192,-242.16252)"/></g><g id="g4597" transform="matrix(0.2666849,0,0,0.2666849,40.248391,-38.45314)"><use transform="translate(-672.92543,-0.29237801)" id="use6151" xlink:href="#path6098"/><use transform="translate(-672.78368,2.1987964e-5)" id="use6153" xlink:href="#path6130"/><g id="g4578"><use xlink:href="#path6046" id="use4572" transform="translate(-672.86079)"/><use xlink:href="#use4572" id="use4574" transform="matrix(-1,0,0,1,100.34818,0)"/></g></g><g id="g4590" transform="matrix(0.2666849,0,0,0.2666849,72.56536,-72.09303)"><use transform="translate(-670.73492,14.882822)" id="use6165" xlink:href="#path6161"/><use xlink:href="#path6161" id="use6171" transform="matrix(-1,0,0,1,775.4198,14.882822)"/></g><g id="g4586" transform="matrix(0.2666849,0,0,0.2666849,106.20524,-110.26862)"><use transform="translate(-674.70922,2.1987964e-5)" id="use6184" xlink:href="#path6180"/><use xlink:href="#path6180" id="use6186" transform="matrix(-1,0,0,1,771.8392,2.1987964e-5)"/></g></g><g transform="translate(-3.0361853,-4.5852354)"><use xlink:href="#g4601" transform="matrix(0.76527053,0,0,0.76527053,4.7711676,68.995434)" style="fill:#000000;"/><use xlink:href="#g4582" transform="matrix(0.76527053,0,0,0.76527053,38.927863,65.003996)" style="fill:#000000;"/><use xlink:href="#g4673" transform="matrix(0.70291085,0,0,0.70291085,53.560452,64.190644)" style="fill:#000000;"/><use xlink:href="#g4597" transform="matrix(0.76527053,0,0,0.76527053,12.795458,67.895885)" style="fill:#000000;"/><use xlink:href="#g4590" transform="matrix(0.76527053,0,0,0.76527053,21.488379,68.199507)" style="fill:#000000;"/><use xlink:href="#g4586" transform="matrix(0.7129286,0,0,0.7129286,36.619262,66.706743)" style="fill:#000000;"/><use style="fill:#ffffff;" transform="matrix(0.76527053,0,0,0.76527053,4.7711676,102.8621)" xlink:href="#g4601"/><use style="fill:#ffffff;" transform="matrix(0.76527053,0,0,0.76527053,38.927863,98.870666)" xlink:href="#g4582"/><use style="fill:#ffffff;" transform="matrix(0.70291085,0,0,0.70291085,53.560452,97.322322)" xlink:href="#g4673"/><use style="fill:#ffffff;" transform="matrix(0.76527053,0,0,0.76527053,12.795458,101.76256)" xlink:href="#g4597"/><use style="fill:#ffffff;" transform="matrix(0.76527053,0,0,0.76527053,21.488379,102.06618)" xlink:href="#g4590"/><use style="fill:#ffffff;" transform="matrix(0.7129286,0,0,0.7129286,36.619262,100.57341)" xlink:href="#g4586"/></g></svg>