<?xml version="1.0" encoding="UTF-8"?>
<svg xmlns:svg="http://www.w3.org/2000/svg" xmlns="http://www.w3.org/2000/svg" xmlns:xlink="http://www.w3.org/1999/xlink" width="600" height="200" version="1.1"><defs><g id="R" transform="scale(0.16)"><path d="m-142 -196c5 144 56 153 49 204 16 14 36 19 37 33 1 10 -26 17 -26 18 l -8 32c-4 11 27 46 49 71 9 11 30 18 41 18l13 -139 -13 -95c-28 0 -35 6 -43 13 -11 11 -27 12 -29 -2 -12 -112 14 -89 -69 -153zm115 326c3 0 8 2 11 7 11 13 7 31 7 31 0 4 -5 6 -5 2 -1 -14 -2 -19 -9 -25 -14 -8 -10 -15 -4 -15z" id="r"/><use xlink:href="#r" transform="scale(-1,1)"/></g><g id="C" transform="scale(0.16)"><path d="m-154 24c12 -4 6 15 -1 44 -3 8 31 36 42 42 11 6 57 24 77 29 7 3 30 -13 30 -13l0 -37c-16 -9 -32 -18 -30 -30 2 -11 10 -10 36 -11l21 -76 -21 -76 c -47 -1 -49 4 -61 12 -11 8 -18 13 -30 6 -64 -56 -82 -77 -90 -74 -8 4 8 48 27 183zm30 -44c12 0 47 12 62 23 8 6 13 18 12 29 -11 13 -56 -10 -71 -35 -3 -6 -13 -17 -4 -16z" id="c"/><use transform="scale(-1,1)" xlink:href="#c"/><path d="m-32 149c0 0 -1 7 32 7 33 0 32 -7 32 -7 -19 -4 -32 -21 -32 -21 0 0 -13 17 -32 21z"/><path d="m-24 64c-3 -2 -1 -6 3 -6h22 20c5 0 7 4 3 6 -16 11 -19 14 -24 14 -5 0 -7 -3 -24 -14z"/></g><g id="D" transform="scale(0.16)"><path d="m-173 -190c-7 0 -15 9 -14 12 4 13 19 59 27 116 0 8 -17 54 -18 64 0 7 14 27 14 27 25 -35 11 7 2 28 -6 8 43 51 68 76 6 6 38 -72 46 -67 7 5 -27 58 -27 66 0 7 16 35 16 35 0 0 0 6 59 4l13 -33 -13 -24c0 0 -11 0 -15 -19 -4 -13 -30 -6 -18 -37 2 -3 11 -7 34 -7l19 -87 -19 -87c-39 0 -52 15 -66 6 -53 -35 -88 -64 -101 -73 -1 -1 -3 -1 -5 -1 z m 45 172c19 0 50 9 62 14 4 2 20 37 10 45 -11 8 -26 -8 -46 -23 -20 -15 -42 -28 -37 -35 3 -1 6 -2 11 -2zm74 200 6 27 9 -25zm54 2 -26 0 c -8 0 -8 18 0 18l26 0 6 -9z" id="d"/><use xlink:href="#d" transform="scale(-1,1)"/></g><g id="H" transform="scale(0.15)"><path id="h" d="m-28 235c36 -5 3 -68 -13 -58 -13 8 16 17 8 36 -7 16 -6 24 5 22zm28 -411c0 0 -42 0 -57 9 -19 12 -56 55 -58 61 -2 6 3 27 8 31 61 44 89 139 88 224 -2 26 -12 23 -11 2 1 -37 -7 -119 -43 -171 -13 7 -27 9 -42 8 -39 94 87 48 50 211 -5 17 13 29 20 37 5 6 20 5 45 5l14 -209zm-112 -94c-23 57 21 53 17 118 0 0 16 -22 34 -27 -7 -37 -18 -69 -52 -90z"/><use xlink:href="#h" transform="scale(-1,1)"/></g><g id="M" transform="scale(0.16)"><path id="m" d="m0 150c-13 16 -49 21 -64 26 28 14 37 17 65 17l3 -20zm0 -200c0 0 -72 4 -74 20 -2 16 31 37 35 38 4 1 18 10 0 9 -19 -1 -25 -10 -25 -10 3 8 -5 23 -13 43 -12 31 -24 72 -2 108 6 9 61 -10 75 -18 -2 -14 -2 -107 1 -131 -20 -13 -18 -42 -59 -37 -3 0 -4 -3 -1 -5 0 0 30 -24 64 34l5 -30zm0 -120c-12 -10 -55 -4 -77 10 -12 8 -5 22 -14 31 -41 31 -76 25 -78 46 0 8 14 6 27 15 19 14 39 38 35 54 -1 2 -2 13 -23 8 -18 -4 -24 -7 -29 0 -5 7 -8 9 -7 13 2 4 28 56 26 106 -1 26 22 44 44 51 0 0 -36 -55 16 -147 5 -9 -4 -28 -5 -30 -18 -33 21 -49 84 -50l11 -53zm-85 -2c0 0 -11 8 -15 28 -44 -47 -84 -39 -85 -34 0 11 41 6 75 43 l -38 17c-14 -30 -58 -52 -58 -68 27 -23 77 7 121 13z"/><use xlink:href="#m" transform="scale(-1,1)"/></g><g id="E" transform="scale(0.15)"><path id="e" d="m0 275c-14 0 -28 -3 -30 -13 -2 -10 -3 -108 -22 -169 -14 -45 -18 -29 -11 9 -14 -12 -30 -20 -46 -26 0 0 36 -92 39 -106 13 -32 -41 -69 -78 -75 -3 -1 -3 -22 1 -29 0 0 55 -96 61 -103 6 -6 49 -35 61 -35 10 0 12 4 25 4l21 271zm-124 -74c19 -38 23 -74 21 -107 16 7 31 16 44 27 -16 30 -34 62 -65 80zm-14 -230c0 15 -10 42 -5 53 6 11 25 30 25 30 0 0 34 -88 34 -91 0 -3 -2 -6 -2 -6 0 0 -24 5 -54 -16 -1 16 19 24 26 25 7 2 16 4 12 11 -4 7 -17 4 -37 -7zm-111 83c-24 -74 31 -89 42 -229 1 -10 8 -20 17 -24l81 -34c3 -1 4 0 3 3 -39 73 -62 87 -53 122 -5 -1 -17 0 13 14 -6 13 -4 21 -1 28 -6 11 -4 21 2 30 -26 73 -6 73 24 104 -3 9 -1 18 11 24 l -1 8c-71 -55 -81 -54 -124 -38 -5 2 -11 -1 -13 -6z"/><use xlink:href="#e" transform="scale(-1,1)"/></g><g id="g"><use xlink:href="#R" x="50"/><use xlink:href="#C" x="150"/><use xlink:href="#D" x="250"/><use xlink:href="#H" x="350"/><use xlink:href="#M" x="450"/><use xlink:href="#E" x="550"/></g></defs><use xlink:href="#g" y="50"/><use xlink:href="#g" style="fill:#fff" y="150"/></svg>
